<svg xmlns="http://www.w3.org/2000/svg" width="202" height="244" viewBox="0 0 202 244"><clipPath id="a"><path d="M0 0h202v244H0z"/></clipPath><g clip-path="url(#a)"><path fill="#fcfcfc" d="M-172-110H852V914H-172V-110"/><defs><linearGradient id="b" x1="269.264" x2="281.52" y1="319.477" y2="187.055" gradientUnits="userSpaceOnUse"><stop offset="0" stop-color="#003dcf"/><stop offset="1" stop-color="#0776f9"/></linearGradient></defs><path fill="url(#b)" d="M212.619 197.635c3.274-4.371 2.832-13.955 8.098-15.72 2.325.12 3.852 1.221 6.243 1.771 4.179.963 9.139.524 12.634 3.113.686 3.107-6.719 8.811-4.518 17.356a35 35 0 0 0 .35 6.116c1.313 8.988 8.678 16.105 15.576 21.346 6.384-5.307 25.001-27.281 31.961-27.539 20.652-.764 42.032-.846 62.774-.18 11.86.381-3.307 29.71-3.739 35.067-1.95 10.872-14.307 20.485-22.251 28.065-13.356 12.744-26.897 27.833-40.983 39.697a49.6 49.6 0 0 1-10.071 6.651c-25.322 12.538-51.837.378-64.265-23.867-4.684-8.64-1.766-23.356 10.62-20.942 8.114 1.581 8.953 9.191 13.366 15.192 9.323 13.232 25.13 14.119 36.808 3.262 16.83-15.647 32.938-32.782 49.629-48.664 2.272-2.161 4.919-5.954 3.466-9.172-1.947-1.412-26.95-1.628-28.755-.442-12.181 8.002-21.676 21.916-33.063 31.379-8.183 6.801-14.498-3.622-20.163-8.62-17.471-16.304-27.375-28.651-23.717-53.869" transform="translate(-172 -110)"/><defs><linearGradient id="c" x1="296.366" x2="268.454" y1="195.286" y2="142.322" gradientUnits="userSpaceOnUse"><stop offset="0" stop-color="#0078f1"/><stop offset="1" stop-color="#099bfe"/></linearGradient></defs><path fill="url(#c)" d="M212.619 197.635a62.7 62.7 0 0 1 26.251-40.023c14.801-10.026 25.823-9.098 42.912-9.064l29.774.074c8.649.011 18.377-.687 26.85.461 11.022 1.493 13.882 18.212 4.021 23.428-3.935 2.058-11.8 1.468-16.205 1.46l-37.917-.095c-8.04-.025-18.654-.828-26.292.442-15.624 2.598-24.812 15.065-26.937 29.837-2.201-8.545 5.204-14.249 4.518-17.356-3.495-2.589-8.455-2.15-12.634-3.113-2.391-.55-3.918-1.651-6.243-1.771-5.266 1.765-4.824 11.349-8.098 15.72" transform="translate(-172 -110)"/></g></svg>