<svg xmlns="http://www.w3.org/2000/svg" width="512" height="231" viewBox="0 0 512 231"><clipPath id="a"><path d="M0 0h512v231H0z"/></clipPath><g clip-path="url(#a)"><path fill="#fdfcfc" d="M0-721h1024V303H0V-721"/><path fill="#09192c" d="M512.097-8.979 1024-9.01V303H0V-8.951z"/><path fill="#0555eb" d="M512.097-8.979 1024-9.01v250.478l-511.984-.037z"/><defs><linearGradient id="b" x1="156.691" x2="159.279" y1="883.6" y2="794.408" gradientUnits="userSpaceOnUse"><stop offset="0" stop-color="#024fe5"/><stop offset="1" stop-color="#098bfb"/></linearGradient></defs><path fill="url(#b)" d="M125.682 794.988c.826-.33 1.74-.641 2.583-.948 3.003 2.533 8.664.004 14.461 2.659-4.725 3.878-6.461 4.563-9.008 10.933l.505.783c-1.708 10.453-.317 15.455 8.373 21.974 4.6-4.093 11.763-12.224 16.119-15.161a14.7 14.7 0 0 1 6.519-2.422c7.139-.887 15.111.006 22.351.098 3.571.046 7.289-.348 10.828-.079 1.859.141 3.971.371 5.293 1.827.762.838.619 2.37.483 3.431-.751 5.837-4.608 17.834-7.819 22.722-2.91 4.43-33.957 34.159-38.8 37.749-6.189 4.587-13.285 6.884-21.025 5.711-8.151-1.235-15.941-6.736-20.561-13.513-2.033-2.983-4.435-7.735-3.799-11.485.378-2.233 1.836-4.107 3.743-5.275 1.17-.716 2.405-1.079 3.784-.798 7.975 1.628 10.872 23.034 27.146 14.799 4.055-2.052 29.295-27.344 33.49-32.114 1.477-1.679 3.245-3.875 3.864-6.036.052-.185.072-.377.108-.566-1.445-1.727-14.073-1.21-16.853-1.172-8.302 5.107-17.148 19.253-25.399 21.347-2.965.752-17.759-15.706-19.343-19.036-2.707-4.391-6.007-14.809-3.893-19.751l.425.702c1.619-7.949 2.361-9.187 6.425-16.379" transform="translate(0 -721)"/><path fill="#0993f9" d="M118.832 89.665c.732-14.508 16.357-31.012 31.187-31.368 14.568-.428 29.234.136 43.811-.127 2.686-.049 6.253.87 7.73 2.885 3.122 3.093.716 11.872-3.835 12.326-12.33 1.23-27.617.047-40.002.315-12.426.27-18.099 2.742-23.5 13.719l-.505-.783c2.547-6.37 4.283-7.055 9.008-10.933-5.797-2.655-11.458-.126-14.461-2.659-.843.307-1.757.618-2.583.948-4.064 7.192-4.806 8.43-6.425 16.379z"/><path fill="#fdfcfc" d="M359.777 97.585c25.51-1.768 18.839 14.099 19.933 31.831.104 1.698-.114 2.429-1.236 3.474-2.224.229-3.484.472-5.699.136-1.488-1.106-1.012-.68-1.453-3.094-.665.042-.714-.051-1.205.314-6.609 4.915-12.064 5.41-19 .039-1.779-2.816-3.722-8.537-1.947-11.695 4.758-8.465 15.82-4.964 22.018-6.92.856-3.228-2.125-6.143-5.028-7.427-4.749-2.101-11.648 10.483-15.474 2.005.152-5.11 4.886-7.335 9.091-8.663"/><path fill="#09192c" d="M362.579 118.074c2.706-.166 6.885-.869 8.881.714 1.016 3.398-2.385 6.834-5.354 8.147-3.961.471-6.969.6-8.758-3.526-.1-3.467 2.419-4.414 5.231-5.335"/><path fill="#fdfcfc" d="M228.645 84.174c5.217.061 24.58-.68 27.639.82 7.393 10.577-15.565 7.57-20.501 7.54-.237 3.945-.123 8.359-.109 12.347 7.14-.033 23.392-3.65 18.417 7.97-5.953.277-12.408.081-18.402.017-.191 5.39 1.926 17.633-2.601 20.591-1.869.121-4.084.38-5.608-.93-1.677-1.442-1.021-39.39-.907-44.588.046-2.082.693-2.434 2.072-3.767"/><path fill="#fdfcfc" d="M279.932 98.147c2.189-.173 4.263-.389 6.17.612 2.585 3.681-.271 17.407 1.191 22.776 1.229 4.512 4.334 6.133 8.699 4.404 8.952-4.056 1.981-19.198 5.35-26.408 1.147-2.454 5.017-1.782 6.904-.76 1.998 2.852 1.254 8.357 1.149 12.104q.033 11.053-.084 22.106c-2.57.099-4.624.176-7.217.051-1.803-1.483.24-1.13-1.395-3.75-4.274 3.518-5.315 4.98-11.462 4.82-2.604-.068-5.602-1.284-7.218-3.34-6.196-7.882-3.116-20.568-3.674-30.062-.08-1.38.694-1.906 1.587-2.553"/><path fill="#fdfcfc" d="M330.294 109.241c3.529-5.822 5.726-12.342 13.606-11.179 3.403 3.075-6.231 14.001-8.506 17.098 3.282 4.767 6.682 9.658 9.839 14.516 1.043 1.607 1.035 1.954.626 3.297-2.469.13-5.103.146-7.588.206-2.82-3.237-5.701-7.763-8.154-11.385-2.279 3.508-5.068 8.152-7.864 11.12-2.18.095-6.715.805-8.012-1.069 1.388-3.869 8.063-12.912 10.668-16.623-2.299-3.599-10.863-13.642-10.054-17.022 2.57-.201 5.151-.122 7.731-.1 2.336 2.502 5.696 8.066 7.708 11.141"/><path fill="#fdfcfc" d="M264.791 84.027c1.456-.026 6.146-.439 6.238 1.821.604 14.744.057 29.682.144 44.46.01 1.698-.323 1.817-1.202 3.068-3.073.193-4.885.728-7.177-1.227-1.169-9.458.101-35.896-.036-46.713-.007-.588 1.291-1.027 2.033-1.409"/><path fill="#fdfcfc" d="M340.973 151.526c1.344 1.847.145 3.32 1.618 5.863 1.879-.853 1.446-3.964 1.058-5.621l.629-.54 1.007 1.137c1.251-.361.685-.058 1.691-.923l.599.247-.773 3.177c.737 1.991 1.582.245.685 2.606l.51-.353-.112.731c-.754-.668-1.463-1.468-2.161-2.205-1.057 1.025-.685.596-1.243 2.104-1.967.447-5.92.698-7.781-.337.011-2.415-.195-3.931.8-6.123l.56.316z"/><path fill="#142738" d="m338.06 151.605 2.913-.079c-.672 2.455.242 2.941-1.48 4.989l-.746.045c-1.011-1.616-.729-2.998-.687-4.955"/><path fill="#c4c9d0" d="m276.162 151.544 1.357-.438c1.277.002 3.55-.056 4.735.054 1.574-.097 1.79-.212 3.349.057-1.019 2.66-1.579 3.472-.145 6.129l-2.86.672c-1.525-1.879-.423-5.041-2.963-6.206-.718 1.382-.818 3.335-.935 4.938l-.059.873-1.101.218-1.388-.093q-.03-3.102.01-6.204"/><path fill="#142738" d="M282.254 151.16c1.574-.097 1.79-.212 3.349.057-1.019 2.66-1.579 3.472-.145 6.129l-2.86.672c.81-2.699.422-4.228-.344-6.858"/><path fill="#121a20" d="m276.162 151.544 1.357-.438.021 6.735-1.388-.093q-.03-3.102.01-6.204"/><path fill="#fdfcfc" d="M383.636 151.414a3.505 3.505 0 1 1 3.033 6.319 3.505 3.505 0 0 1-3.033-6.319"/><path fill="#fdfcfc" d="M350.687 151.46a3.45 3.45 0 1 1 2.857 6.28 3.45 3.45 0 0 1-2.857-6.28"/><path fill="#142738" d="M351.216 151.756c1.532.407 1.522.283 2.519 1.476.448 1.691.006 2.424-.549 4.094-2.161-.462-1.849-.448-2.808-1.792-.193-1.736.154-2.186.838-3.778"/><path fill="#fdfcfc" d="M319.881 150.857c2.858-.069 3.947.031 5.287 2.55.147 2.078-.105 2.297-1.066 4.253-1.526.402-1.51.329-3.111.195-2.965-1.894-2.284-4.119-1.11-6.998"/><path fill="#142738" d="M321.055 152.395a2.199 2.199 0 1 1 1.798 4.013 2.199 2.199 0 0 1-1.798-4.013"/><path fill="#fdfcfc" d="M310.424 147.762c1.89 1.174 4.173 5.441 5.49 7.577-.008-1.768-.148-4.806.457-6.335 1.252 2.399 1.667 7.097.205 9.387-1.651-2.282-3.465-5.244-5.024-7.661.057 2.726.179 3.983-.486 6.69l-.407-.108c-.855-3.516-.647-5.959-.235-9.55"/><path fill="#c4c9d0" d="M297.006 152.581c1.213-1.328 1.125-1.384 2.951-1.822 1.564.476 1.001.019 2.016 1.076-1.224.653-1.454.481-2.93.556 1.274 1.95 3.025 1.947 3.892 4.2-.994 1.85-3.54 1.61-5.475 1.622-.584.168-.662.034-1.368-.112.252-.607.085-4.319.153-5.433z"/><path fill="#142738" d="m296.245 152.668.761-.087c1.34 1.617 1.933 2.1 3.692 3.253-1.177.879-1.591.522-3.021.723l-.217 1.656c-.584.168-.662.034-1.368-.112.252-.607.085-4.319.153-5.433"/><path fill="#c4c9d0" d="M366.746 150.9c2.279.039 3.25.038 4.811 1.472l.032 1.141c-1.726 1.999-3.02 1.417-4.174 2.936 1.127.703 1.788.58 3.142.651l.484-1.018.341.356c-.714 1.617-.147 1.011-1.86 1.781-1.777-.042-1.726.087-3.112-.975-1.128-2.324-.475-3.965.336-6.344"/><path fill="#c4c9d0" d="M276.152 157.748c-1.861.271-4.367 1.008-5.56-.629.602-1.814 2.463-3.397 3.849-4.827l-2.393-.051c.124-.867-.076-.508.611-1.07 1.528-.456 1.99-.138 3.503.373q-.04 3.102-.01 6.204"/><path fill="#c4c9d0" d="M379.001 149.398c.707.776.67.782 1.234 1.674-.2 2.172-.026 4.42.075 6.606l-.609.518c-2.328-2.45.454-4.399-3.574-6.955-2.215 1.708-1.817 3.853-2.005 6.504l-.488.256c-2.832-9.546 2.318-5.134 5.367-8.603"/><path fill="#fdfcfc" d="M241.591 151.086c1.396-.105 1.507-.079 2.902.122 2.298 1.566 2.834 3.819 1.077 6.097-.927 1.204-2.809.875-4.211.91.098-6.165 1.422-2.329 3.381-5.282l-.298-.794c-1.545.489-1.486.75-2.829.413z"/><path fill="#c4c9d0" d="m292.081 154.146 1.029.02.394-.903.927.355-.541-.447.485.554.216-.495c-2.16-.648-1.991-.198-2.765-1.628l.497-.516c2.815.361 1.803-.091 3.922 1.582-.068 1.114.099 4.826-.153 5.433-3.079.062-4.045.752-5.303-2.032z"/><path fill="#fdfcfc" d="M228.183 148.364c2.491.033 2.706-.071 4.67 1.274l-.022.406c-1.974-.142-2.64-.181-4.593-.007l-.364.677c1.629 2.678 4.076 1.934 5.283 4.632-.39 1.703-1.004 2.005-2.32 3.167-2.388-.506-2.742-.636-4.123-2.343 2.279.322 3.264.752 5.037-.21.142-2.243-3.069-1.42-4.726-4.428.119-2.162-.137-1.111 1.158-3.168"/><path fill="#c4c9d0" d="M263.984 150.996c2.154.731 3.238-.552 5.105.361 1.258 1.842 1.482 4.876-.094 6.533-.755-1.283-.624-2.852-.691-4.402l.14-.349-.642-.496.214-.304-.174-.219-1.098.526c-1.313 2.994-1.436 4.758-1.927 8.049-.499-3.198-.632-6.465-.833-9.699"/><path fill="#c4c9d0" d="m334.985 157.57-.442.136-.528-.621c-.181-2.688-.425-6.608.825-9.01l.56.339.06 1.912c.457.209 1.586.692 2.04.963-.995 2.192-.789 3.708-.8 6.123z"/><path fill="#121a20" d="M335.46 150.326c.457.209 1.586.692 2.04.963-.995 2.192-.789 3.708-.8 6.123l-1.715.158c.461-1.691.425-5.341.475-7.244"/><path fill="#c4c9d0" d="M234.502 150.814c1.919 1.861.087 3.684 2.048 6.15l.909-.154c1.383-2.308.588-3.935 1.773-5.53l.56.799c.225 3.251.954 4.575-2.015 6.563-4.261-.328-3.886-4.735-3.275-7.828"/><path fill="#c4c9d0" d="M285.603 151.217c1.666-.206 2.496-.477 4.043.166-.142 1.014.089.586-.728 1.265l-1.217-.482c-2.117 1.234-2.366 2.701-.854 4.616 1.96.411 1.267.338 3.503-.885-.798 2.121-.784 1.9-2.668 3.446l.619.853-.393.787c-1.248-.678-1.12-1.428-1.399-2.856l-1.051-.781c-1.434-2.657-.874-3.469.145-6.129"/><path fill="#fdfcfc" d="M248.246 150.743c1.826.181 1.871.085 3.517 1.044l.181.836c-1.417-.192-1.568-.316-2.935-.021.616 1.256 2.007 1.908 3.311 2.88.001 1.708-.115 1.328-1.113 3.04-2.235-.143-2.319.017-3.662-1.523l.07-.691c1.019.226 2.001.407 3.027.599l.316-.58c-1.081-1.775-.798-1.243-2.888-2.374-.562-1.634-.348-1.211.176-3.21"/><path fill="#c4c9d0" d="m258.074 147.644 1.377.402c-.247 3.337-1.007 6.097-.958 9.373l-.568.509-.6-.412c-.279-2.69-.3-4.731-.324-7.405l-.578.88z"/><path fill="#fdfcfc" d="m330.548 147.562 1.439.557-.069.779c.586 3.298-.485 3.642-.69 6.958l-.027.509-.212 1.088-.549.057c-.842-3.542-1.068-6.479.108-9.948"/><path fill="#fdfcfc" d="M361.056 150.777c1.647.213 2.924.158 3.448 1.947l-2.83-.517-1.061 1.331c-.302 1.957-.463 1.075.36 2.759 1.79.921.827.759 3.034.166.179-.388.034-.176.568-.521-.147 1.459.086.787-.983 1.938-1.633.481-1.513.457-3.159-.008-1.97-2.524-1.213-4.778.623-7.095"/><path fill="#c4c9d0" d="m261.102 150.652 1.138.549c.601 2.136.094 4.375-.178 6.642-.652.066-.296.116-1.02-.348-.401-2.773-.176-4.083.06-6.843"/></g></svg>